# xmcd CD database file
#
# Track frame offsets:
#	150
#	21082
#	47845
#	84300
#	103457
#	124500
#	142955
#	156807
#	186902
#
# Disc length: 2780 seconds
#
# Revision: 0
# Processed by: cddbd v1.5.1PL0 Copyright (c) Steve Scherf et al.
# Submitted via: CDex 1.51
#
DISCID=720ada09
DTITLE=ザ・グルーヴァーズ - マキシマム・キス
DYEAR=1989
DGENRE=Rock
TTITLE0=ビッグ・ビート
TTITLE1=例えば深い眠りの中
TTITLE2=シスター・ムーンのために
TTITLE3=ボーイ
TTITLE4=誕生
TTITLE5=彼女は正気じゃない
TTITLE6=雨と風のリズム
TTITLE7=マザー・スカイ
TTITLE8=ヘブン
EXTD=YEAR: 1989
EXTT0=
EXTT1=
EXTT2=
EXTT3=
EXTT4=
EXTT5=
EXTT6=
EXTT7=
EXTT8=
PLAYORDER=
